<svg id="logo" xmlns="http://www.w3.org/2000/svg" width="32" height="32" viewBox="0 0 32 32">
  <defs>
    <style>
      .cls-1 {
        fill: #595959;
      }

      .cls-2 {
        fill: #fff;
      }
    </style>
  </defs>
  <title>2</title>
  <g>
    <circle class="cls-1" cx="17.72" cy="16.28" r="9.38"/>
    <circle class="cls-1" cx="17.72" cy="12.82" r="9.38"/>
    <rect class="cls-1" x="8.34" y="18" width="16.66" height="8"/>
    <path class="cls-1" d="M32,19.2a6.77,6.77,0,0,1-3.13,5.72A6.56,6.56,0,0,1,26,26a4.73,4.73,0,0,1-.75.05H25a6.74,6.74,0,0,1-4.09-1.51A6.9,6.9,0,0,1,19,22a6.69,6.69,0,0,1-.62-2.83,6.8,6.8,0,0,1,13.6,0Z"/>
    <circle class="cls-1" cx="8.25" cy="17.75" r="8.25"/>
  </g>
  <g>
    <rect class="cls-2" x="8.76" y="15.93" width="13.19" height="2.76" transform="translate(16.52 -5.8) rotate(44.45)"/>
    <path class="cls-2" d="M28.87,24.92a5.56,5.56,0,0,0-1.64-3.38A5.34,5.34,0,0,0,25,20.21a5.57,5.57,0,0,0-5.62,1.41A4.59,4.59,0,0,0,19,22a5.5,5.5,0,0,0-1.23,3.53c0,.15,0,.3,0,.44h2.93a2.42,2.42,0,0,1,0-.47,2.53,2.53,0,0,1,.21-1.05,2.64,2.64,0,0,1,4.09-1l.2.18A2.63,2.63,0,0,1,26,26,6.56,6.56,0,0,0,28.87,24.92Z"/>
    <rect class="cls-2" x="10.12" y="13.09" width="2.76" height="7.46" transform="translate(15.07 -3.24) rotate(44.45)"/>
    <rect class="cls-2" x="14.19" y="16.64" width="2.76" height="5.24" transform="translate(17.94 -5.39) rotate(44.45)"/>
  </g>
</svg>
