<svg id="logo" xmlns="http://www.w3.org/2000/svg" width="32" height="32" viewBox="0 0 32 32">
  <defs>
    <style>
      .cls-1 {
        fill: #595959;
      }
    </style>
  </defs>
  <title>4</title>
  <g>
    <path class="cls-1" d="M25.23,27.19c.24,0,.49,0,.73,0a2.64,2.64,0,1,0-5.26-.32c0,.12,0,.24,0,.36Z"/>
    <path class="cls-1" d="M27.08,13.86A9.37,9.37,0,0,0,9,10.73c-.24,0-.48,0-.73,0a8.24,8.24,0,0,0-.34,16.48s9.92,0,9.92,0,0-.22,0-.33a5.5,5.5,0,0,1,.89-3.06l-2.23-2.18-1.73,1.77-2-1.93,1.73-1.77L13.17,18.4,9.88,21.75l-2-1.94,3.28-3.35L9.68,15l1.93-2,2.5,2.46,1,1,1.32,1.29,2,1.93,2.33,2.29a5.49,5.49,0,0,1,8.11,4.19,6.79,6.79,0,0,0-1.75-12.27Z"/>
  </g>
</svg>
